<svg id="visual" viewBox="0 0 900 600" width="900" height="600" xmlns="http://www.w3.org/2000/svg" xmlns:xlink="http://www.w3.org/1999/xlink" version="1.1"><g stroke-width="1" stroke-linejoin="bevel"><path d="M450 242.1L464 363.9L515 271.1Z" fill="#ededed" stroke="#ededed"></path><path d="M464 363.9L528 365.9L515 271.1Z" fill="#efefef" stroke="#efefef"></path><path d="M450 242.1L372 320.9L464 363.9Z" fill="#f7f7f7" stroke="#f7f7f7"></path><path d="M375 273.1L372 320.9L450 242.1Z" fill="#f7f7f7" stroke="#f7f7f7"></path><path d="M464 363.9L522 416.6L528 365.9Z" fill="#f7f7f7" stroke="#f7f7f7"></path><path d="M451 434.6L522 416.6L464 363.9Z" fill="#f5f5f5" stroke="#f5f5f5"></path><path d="M371 406.6L451 434.6L464 363.9Z" fill="#fbfbfb" stroke="#fbfbfb"></path><path d="M372 320.9L371 406.6L464 363.9Z" fill="#f7f7f7" stroke="#f7f7f7"></path><path d="M448 148.4L371 185.4L450 242.1Z" fill="#f3f3f3" stroke="#f3f3f3"></path><path d="M450 242.1L371 185.4L375 273.1Z" fill="#ededed" stroke="#ededed"></path><path d="M375 273.1L280 234.1L372 320.9Z" fill="#f1f1f1" stroke="#f1f1f1"></path><path d="M372 320.9L256 358.9L371 406.6Z" fill="#f5f5f5" stroke="#f5f5f5"></path><path d="M563 157.4L448 148.4L450 242.1Z" fill="#ebebeb" stroke="#ebebeb"></path><path d="M647 319.9L616 236.1L515 271.1Z" fill="#f7f7f7" stroke="#f7f7f7"></path><path d="M515 271.1L563 157.4L450 242.1Z" fill="#f3f3f3" stroke="#f3f3f3"></path><path d="M647 319.9L515 271.1L528 365.9Z" fill="#f7f7f7" stroke="#f7f7f7"></path><path d="M616 236.1L563 157.4L515 271.1Z" fill="#f5f5f5" stroke="#f5f5f5"></path><path d="M615 445.6L647 319.9L528 365.9Z" fill="#ebebeb" stroke="#ebebeb"></path><path d="M371 185.4L280 234.1L375 273.1Z" fill="#fdfdfd" stroke="#fdfdfd"></path><path d="M616 236.1L607 166.4L563 157.4Z" fill="#f5f5f5" stroke="#f5f5f5"></path><path d="M699 179.4L607 166.4L616 236.1Z" fill="#ededed" stroke="#ededed"></path><path d="M547 498.3L615 445.6L522 416.6Z" fill="#ffffff" stroke="#ffffff"></path><path d="M522 416.6L615 445.6L528 365.9Z" fill="#ebebeb" stroke="#ebebeb"></path><path d="M451 434.6L547 498.3L522 416.6Z" fill="#f1f1f1" stroke="#f1f1f1"></path><path d="M434 532.3L547 498.3L451 434.6Z" fill="#efefef" stroke="#efefef"></path><path d="M280 234.1L256 358.9L372 320.9Z" fill="#ebebeb" stroke="#ebebeb"></path><path d="M371 406.6L338 493.3L451 434.6Z" fill="#fbfbfb" stroke="#fbfbfb"></path><path d="M519 88.7L470 85.7L448 148.4Z" fill="#f3f3f3" stroke="#f3f3f3"></path><path d="M448 148.4L372 83.7L371 185.4Z" fill="#f3f3f3" stroke="#f3f3f3"></path><path d="M371 185.4L276 177.4L280 234.1Z" fill="#fbfbfb" stroke="#fbfbfb"></path><path d="M519 88.7L448 148.4L563 157.4Z" fill="#f5f5f5" stroke="#f5f5f5"></path><path d="M256 358.9L274 412.6L371 406.6Z" fill="#ebebeb" stroke="#ebebeb"></path><path d="M647 84.7L519 88.7L563 157.4Z" fill="#ffffff" stroke="#ffffff"></path><path d="M372 83.7L276 177.4L371 185.4Z" fill="#ededed" stroke="#ededed"></path><path d="M280 234.1L190 255.1L256 358.9Z" fill="#fdfdfd" stroke="#fdfdfd"></path><path d="M274 412.6L338 493.3L371 406.6Z" fill="#fbfbfb" stroke="#fbfbfb"></path><path d="M338 493.3L434 532.3L451 434.6Z" fill="#f3f3f3" stroke="#f3f3f3"></path><path d="M470 85.7L372 83.7L448 148.4Z" fill="#f1f1f1" stroke="#f1f1f1"></path><path d="M698 436.6L722 361.9L647 319.9Z" fill="#efefef" stroke="#efefef"></path><path d="M738 232.1L699 179.4L616 236.1Z" fill="#f1f1f1" stroke="#f1f1f1"></path><path d="M738 232.1L616 236.1L647 319.9Z" fill="#efefef" stroke="#efefef"></path><path d="M607 166.4L647 84.7L563 157.4Z" fill="#f7f7f7" stroke="#f7f7f7"></path><path d="M547 498.3L652 494.3L615 445.6Z" fill="#f7f7f7" stroke="#f7f7f7"></path><path d="M615 445.6L698 436.6L647 319.9Z" fill="#ededed" stroke="#ededed"></path><path d="M636 600L652 494.3L547 498.3Z" fill="#f1f1f1" stroke="#f1f1f1"></path><path d="M652 494.3L698 436.6L615 445.6Z" fill="#f9f9f9" stroke="#f9f9f9"></path><path d="M157 161.4L190 255.1L276 177.4Z" fill="#f7f7f7" stroke="#f7f7f7"></path><path d="M276 177.4L190 255.1L280 234.1Z" fill="#efefef" stroke="#efefef"></path><path d="M256 358.9L168 409.6L274 412.6Z" fill="#efefef" stroke="#efefef"></path><path d="M190 255.1L187 339.9L256 358.9Z" fill="#f9f9f9" stroke="#f9f9f9"></path><path d="M274 412.6L255 501.3L338 493.3Z" fill="#ebebeb" stroke="#ebebeb"></path><path d="M722 361.9L738 232.1L647 319.9Z" fill="#f3f3f3" stroke="#f3f3f3"></path><path d="M703 96.7L647 84.7L699 179.4Z" fill="#ebebeb" stroke="#ebebeb"></path><path d="M699 179.4L647 84.7L607 166.4Z" fill="#fdfdfd" stroke="#fdfdfd"></path><path d="M519 88.7L463 0L470 85.7Z" fill="#f1f1f1" stroke="#f1f1f1"></path><path d="M348 0L270 74.7L372 83.7Z" fill="#fbfbfb" stroke="#fbfbfb"></path><path d="M168 409.6L255 501.3L274 412.6Z" fill="#fdfdfd" stroke="#fdfdfd"></path><path d="M381 600L429 600L434 532.3Z" fill="#f9f9f9" stroke="#f9f9f9"></path><path d="M463 0L372 83.7L470 85.7Z" fill="#f1f1f1" stroke="#f1f1f1"></path><path d="M372 83.7L270 74.7L276 177.4Z" fill="#ededed" stroke="#ededed"></path><path d="M381 600L434 532.3L338 493.3Z" fill="#ffffff" stroke="#ffffff"></path><path d="M434 532.3L528 600L547 498.3Z" fill="#f5f5f5" stroke="#f5f5f5"></path><path d="M541 0L463 0L519 88.7Z" fill="#ebebeb" stroke="#ebebeb"></path><path d="M429 600L528 600L434 532.3Z" fill="#fdfdfd" stroke="#fdfdfd"></path><path d="M282 600L381 600L338 493.3Z" fill="#f3f3f3" stroke="#f3f3f3"></path><path d="M647 84.7L541 0L519 88.7Z" fill="#f5f5f5" stroke="#f5f5f5"></path><path d="M78 359.9L168 409.6L187 339.9Z" fill="#f5f5f5" stroke="#f5f5f5"></path><path d="M187 339.9L168 409.6L256 358.9Z" fill="#f5f5f5" stroke="#f5f5f5"></path><path d="M817 172.4L703 96.7L699 179.4Z" fill="#ebebeb" stroke="#ebebeb"></path><path d="M647 84.7L652 0L541 0Z" fill="#f5f5f5" stroke="#f5f5f5"></path><path d="M463 0L348 0L372 83.7Z" fill="#f3f3f3" stroke="#f3f3f3"></path><path d="M719 600L731 491.3L652 494.3Z" fill="#efefef" stroke="#efefef"></path><path d="M652 494.3L731 491.3L698 436.6Z" fill="#fdfdfd" stroke="#fdfdfd"></path><path d="M792 443.6L785 363.9L722 361.9Z" fill="#f5f5f5" stroke="#f5f5f5"></path><path d="M722 361.9L785 363.9L738 232.1Z" fill="#f5f5f5" stroke="#f5f5f5"></path><path d="M792 443.6L722 361.9L698 436.6Z" fill="#f1f1f1" stroke="#f1f1f1"></path><path d="M738 232.1L817 172.4L699 179.4Z" fill="#f1f1f1" stroke="#f1f1f1"></path><path d="M172 98.7L157 161.4L276 177.4Z" fill="#fdfdfd" stroke="#fdfdfd"></path><path d="M190 255.1L110 280.1L187 339.9Z" fill="#f1f1f1" stroke="#f1f1f1"></path><path d="M172 98.7L276 177.4L270 74.7Z" fill="#fdfdfd" stroke="#fdfdfd"></path><path d="M168 409.6L200 516.3L255 501.3Z" fill="#fbfbfb" stroke="#fbfbfb"></path><path d="M255 501.3L282 600L338 493.3Z" fill="#f3f3f3" stroke="#f3f3f3"></path><path d="M528 600L636 600L547 498.3Z" fill="#fbfbfb" stroke="#fbfbfb"></path><path d="M200 516.3L282 600L255 501.3Z" fill="#fbfbfb" stroke="#fbfbfb"></path><path d="M157 161.4L110 280.1L190 255.1Z" fill="#ededed" stroke="#ededed"></path><path d="M168 409.6L86 511.3L200 516.3Z" fill="#fdfdfd" stroke="#fdfdfd"></path><path d="M159 0L172 98.7L270 74.7Z" fill="#fdfdfd" stroke="#fdfdfd"></path><path d="M157 161.4L65 175.4L110 280.1Z" fill="#ffffff" stroke="#ffffff"></path><path d="M697 0L652 0L647 84.7Z" fill="#fbfbfb" stroke="#fbfbfb"></path><path d="M731 491.3L792 443.6L698 436.6Z" fill="#ebebeb" stroke="#ebebeb"></path><path d="M817 519.3L792 443.6L731 491.3Z" fill="#f5f5f5" stroke="#f5f5f5"></path><path d="M348 0L267 0L270 74.7Z" fill="#f1f1f1" stroke="#f1f1f1"></path><path d="M900 321.9L823 249.1L785 363.9Z" fill="#f7f7f7" stroke="#f7f7f7"></path><path d="M785 363.9L823 249.1L738 232.1Z" fill="#ededed" stroke="#ededed"></path><path d="M703 96.7L697 0L647 84.7Z" fill="#fbfbfb" stroke="#fbfbfb"></path><path d="M823 249.1L817 172.4L738 232.1Z" fill="#f1f1f1" stroke="#f1f1f1"></path><path d="M815 82.7L697 0L703 96.7Z" fill="#ffffff" stroke="#ffffff"></path><path d="M0 342.9L78 359.9L110 280.1Z" fill="#ededed" stroke="#ededed"></path><path d="M110 280.1L78 359.9L187 339.9Z" fill="#ffffff" stroke="#ffffff"></path><path d="M636 600L719 600L652 494.3Z" fill="#fdfdfd" stroke="#fdfdfd"></path><path d="M159 0L110 91.7L172 98.7Z" fill="#fbfbfb" stroke="#fbfbfb"></path><path d="M172 98.7L110 91.7L157 161.4Z" fill="#fbfbfb" stroke="#fbfbfb"></path><path d="M900 102.7L815 82.7L817 172.4Z" fill="#f9f9f9" stroke="#f9f9f9"></path><path d="M817 172.4L815 82.7L703 96.7Z" fill="#f9f9f9" stroke="#f9f9f9"></path><path d="M719 600L817 519.3L731 491.3Z" fill="#fbfbfb" stroke="#fbfbfb"></path><path d="M900 450.6L900 321.9L785 363.9Z" fill="#fbfbfb" stroke="#fbfbfb"></path><path d="M110 91.7L65 175.4L157 161.4Z" fill="#f9f9f9" stroke="#f9f9f9"></path><path d="M0 442.6L68 448.6L78 359.9Z" fill="#fdfdfd" stroke="#fdfdfd"></path><path d="M78 359.9L68 448.6L168 409.6Z" fill="#f7f7f7" stroke="#f7f7f7"></path><path d="M200 516.3L161 600L282 600Z" fill="#fdfdfd" stroke="#fdfdfd"></path><path d="M86 511.3L161 600L200 516.3Z" fill="#fbfbfb" stroke="#fbfbfb"></path><path d="M267 0L159 0L270 74.7Z" fill="#f7f7f7" stroke="#f7f7f7"></path><path d="M0 165.4L0 250.1L65 175.4Z" fill="#f3f3f3" stroke="#f3f3f3"></path><path d="M68 448.6L86 511.3L168 409.6Z" fill="#f5f5f5" stroke="#f5f5f5"></path><path d="M900 450.6L785 363.9L792 443.6Z" fill="#ebebeb" stroke="#ebebeb"></path><path d="M823 249.1L900 179.4L817 172.4Z" fill="#ffffff" stroke="#ffffff"></path><path d="M900 321.9L900 262.1L823 249.1Z" fill="#f1f1f1" stroke="#f1f1f1"></path><path d="M900 262.1L900 179.4L823 249.1Z" fill="#ffffff" stroke="#ffffff"></path><path d="M86 511.3L110 600L161 600Z" fill="#ebebeb" stroke="#ebebeb"></path><path d="M0 600L110 600L86 511.3Z" fill="#f9f9f9" stroke="#f9f9f9"></path><path d="M817 519.3L900 450.6L792 443.6Z" fill="#f1f1f1" stroke="#f1f1f1"></path><path d="M0 250.1L0 342.9L110 280.1Z" fill="#efefef" stroke="#efefef"></path><path d="M68 448.6L0 506.3L86 511.3Z" fill="#fbfbfb" stroke="#fbfbfb"></path><path d="M0 165.4L65 175.4L0 61.7Z" fill="#f3f3f3" stroke="#f3f3f3"></path><path d="M65 175.4L0 250.1L110 280.1Z" fill="#fdfdfd" stroke="#fdfdfd"></path><path d="M719 600L824 600L817 519.3Z" fill="#fbfbfb" stroke="#fbfbfb"></path><path d="M817 519.3L900 511.3L900 450.6Z" fill="#fdfdfd" stroke="#fdfdfd"></path><path d="M815 82.7L822 0L697 0Z" fill="#ffffff" stroke="#ffffff"></path><path d="M900 0L822 0L815 82.7Z" fill="#fdfdfd" stroke="#fdfdfd"></path><path d="M159 0L101 0L110 91.7Z" fill="#ededed" stroke="#ededed"></path><path d="M900 179.4L900 102.7L817 172.4Z" fill="#f7f7f7" stroke="#f7f7f7"></path><path d="M0 61.7L65 175.4L110 91.7Z" fill="#fdfdfd" stroke="#fdfdfd"></path><path d="M0 342.9L0 442.6L78 359.9Z" fill="#efefef" stroke="#efefef"></path><path d="M900 600L900 511.3L817 519.3Z" fill="#fbfbfb" stroke="#fbfbfb"></path><path d="M0 442.6L0 506.3L68 448.6Z" fill="#efefef" stroke="#efefef"></path><path d="M101 0L0 61.7L110 91.7Z" fill="#fdfdfd" stroke="#fdfdfd"></path><path d="M824 600L900 600L817 519.3Z" fill="#f3f3f3" stroke="#f3f3f3"></path><path d="M900 102.7L900 0L815 82.7Z" fill="#f3f3f3" stroke="#f3f3f3"></path><path d="M0 506.3L0 600L86 511.3Z" fill="#ededed" stroke="#ededed"></path><path d="M101 0L0 0L0 61.7Z" fill="#ffffff" stroke="#ffffff"></path></g></svg>