<svg id="visual" viewBox="0 0 1600 900" width="1600" height="900" xmlns="http://www.w3.org/2000/svg" xmlns:xlink="http://www.w3.org/1999/xlink" version="1.1"><path d="M0 709L29.7 704.7C59.3 700.3 118.7 691.7 178 681C237.3 670.3 296.7 657.7 355.8 648.5C415 639.3 474 633.7 533.2 622.3C592.3 611 651.7 594 711 590.5C770.3 587 829.7 597 889 618.3C948.3 639.7 1007.7 672.3 1066.8 687.7C1126 703 1185 701 1244.2 698.3C1303.3 695.7 1362.7 692.3 1422 679.3C1481.3 666.3 1540.7 643.7 1570.3 632.3L1600 621L1600 901L1570.3 901C1540.7 901 1481.3 901 1422 901C1362.7 901 1303.3 901 1244.2 901C1185 901 1126 901 1066.8 901C1007.7 901 948.3 901 889 901C829.7 901 770.3 901 711 901C651.7 901 592.3 901 533.2 901C474 901 415 901 355.8 901C296.7 901 237.3 901 178 901C118.7 901 59.3 901 29.7 901L0 901Z" fill="#32567a" stroke-linecap="round" stroke-linejoin="miter"></path></svg>